<svg xmlns="http://www.w3.org/2000/svg" viewBox="0 0 256 256" width="256" height="256">
  <!-- 背景圆形 -->
  <circle cx="128" cy="128" r="120" fill="#1E40AF"/>
  
  <!-- 数据节点 - 右上 -->
  <circle cx="176" cy="80" r="16" fill="#3B82F6"/>
  <path d="M176 96v20c0 22-18 40-40 40H96m16 32h-4" stroke="#93C5FD" stroke-width="6" stroke-linecap="round"/>
  
  <!-- 数据节点 - 左下 -->
  <circle cx="80" cy="176" r="16" fill="#3B82F6"/>
  <path d="M80 160V140c0-22 18-40 40-40h32m-16-32h4" stroke="#93C5FD" stroke-width="6" stroke-linecap="round"/>
  
  <!-- 中央立方体 - 表示智能服务 -->
  <g fill="#FFFFFF" opacity="0.9">
    <path d="M128 56L168 80V176L128 200L88 176V80z" fill="none" stroke="#FFFFFF" stroke-width="4"/>
    <path d="M128 56v64M88 80h64M168 80V176M88 176h64M128 200v-64" stroke="#FFFFFF" stroke-width="4" stroke-linecap="round"/>
  </g>
  
  <!-- 连接线条 - 表示数据流动 -->
  <path d="M176 96L144 120" stroke="#93C5FD" stroke-width="4" stroke-linecap="round" stroke-dasharray="8 4"/>
  <path d="M104 136L80 160" stroke="#93C5FD" stroke-width="4" stroke-linecap="round" stroke-dasharray="8 4"/>
  
  <!-- 装饰性元素 - 表示智能和连接 -->
  <path d="M128 56l-24-8M128 56l24-8" stroke="#93C5FD" stroke-width="4" stroke-linecap="round"/>
  <path d="M128 200l-24 8M128 200l24 8" stroke="#93C5FD" stroke-width="4" stroke-linecap="round"/>
  <path d="M8 128l-8-24M8 128l-8 24" stroke="#93C5FD" stroke-width="4" stroke-linecap="round"/>
  <path d="M248 128l8-24M248 128l8 24" stroke="#93C5FD" stroke-width="4" stroke-linecap="round"/>
</svg>